# xmcd
#
# Track frame offsets:
#	150
#	14942
#	29856
#	50784
#	66634
#	78270
#	96113
#	111153
#	124487
#	142114
#
# Disc length: 2124 seconds
# Revision: 0
# Processed by: cddbd v1.5.2PL0 Copyright (c) Steve Scherf et al.
# Submitted via: dBpowerAMP V12.0
#
DISCID=a3084a0a
DTITLE=Aretha Franklin - This Girl's in Love with You
DYEAR=1970
DGENRE=R&B
TTITLE0=Son Of A Preacher Man
TTITLE1=Share Your Love With Me
TTITLE2=Dark End of the Street
TTITLE3=Let It Be
TTITLE4=Eleanor Rigby
TTITLE5=This Girl's In Love with You
TTITLE6=It Ain't Fair
TTITLE7=The Weight
TTITLE8=Call Me
TTITLE9=Sit Down and Cry
EXTD=
EXTT0=
EXTT1=
EXTT2=
EXTT3=
EXTT4=
EXTT5=
EXTT6=
EXTT7=
EXTT8=
EXTT9=
PLAYORDER=
